<?xml version="1.0" encoding="UTF-8"?><svg id="Capa_2" xmlns="http://www.w3.org/2000/svg" viewBox="0 0 76.6 76.6"><defs><style>.cls-1{fill:#fff;}</style></defs><g id="Capa_1-2"><g><path class="cls-1" d="M55.64,4.15l-1.13,6.43h10.21c-2.68-2.56-5.74-4.73-9.07-6.43Z"/><path class="cls-1" d="M65.6,11.44l-1.55,8.49h-11.19l-3.81,21.61c-.3,1.86-.09,3.21,.63,4.04,.72,.84,1.91,1.29,3.56,1.35,1.65,.06,3.67,.03,6.07-.09l-1.53,8.73c-7.15,.9-12.27,.23-15.38-2.02s-4.15-6.25-3.13-12.02l3.86-21.6h-8.28l1.71-9.36h8.24l1.73-9.68c-2.65-.58-5.4-.9-8.23-.9C17.15,0,0,17.15,0,38.3c0,11.01,4.66,20.93,12.1,27.92L22.03,10.29h10.24l-9.44,53.1h25.74l-1.8,9.9H22.72c4.76,2.12,10.03,3.31,15.58,3.31,21.15,0,38.3-17.15,38.3-38.3,0-10.46-4.2-19.94-11-26.86Z"/></g></g></svg>